<?xml version="1.0" standalone="no"?>
<!DOCTYPE svg PUBLIC "-//W3C//DTD SVG 20010904//EN"
 "http://www.w3.org/TR/2001/REC-SVG-20010904/DTD/svg10.dtd">
<svg version="1.0" xmlns="http://www.w3.org/2000/svg"
 width="260.000000pt" height="260.000000pt" viewBox="0 0 260.000000 260.000000"
 preserveAspectRatio="xMidYMid meet">
<metadata>
Created by potrace 1.11, written by Peter Selinger 2001-2013
</metadata>
<g transform="translate(0.000000,260.000000) scale(0.100000,-0.100000)"
fill="#000000" stroke="none">
<path d="M897 2586 c-54 -15 -99 -53 -130 -111 -18 -33 -22 -57 -22 -140 0
-87 6 -120 42 -250 34 -122 151 -489 178 -557 6 -15 3 -16 -27 -8 -89 26 -166
2 -245 -76 -78 -79 -102 -169 -68 -264 8 -23 15 -48 15 -54 0 -6 -30 -24 -65
-40 -123 -55 -175 -140 -182 -301 -6 -124 12 -208 67 -315 184 -352 589 -532
1000 -445 384 82 647 365 726 781 22 119 22 334 0 429 -31 132 -95 211 -204
251 -26 10 -48 18 -50 20 -2 1 31 102 73 225 82 242 141 451 151 540 20 176
-131 325 -269 265 -116 -50 -239 -263 -382 -662 -26 -71 -50 -133 -55 -137 -4
-5 -24 40 -44 100 -149 432 -296 705 -403 749 -38 17 -44 16 -106 0z m94 -177
c38 -38 98 -181 204 -488 58 -167 105 -307 105 -310 0 -3 -41 -6 -91 -5 l-92
0 -24 65 c-58 153 -153 444 -178 544 -37 146 -27 215 31 215 13 0 33 -9 45
-21z m983 -48 c39 -43 22 -125 -100 -481 -88 -259 -118 -335 -130 -334 -5 1
-44 7 -87 14 -65 11 -77 16 -72 29 4 9 49 140 102 291 152 440 220 555 287
481z m-499 -921 c325 -37 493 -96 531 -186 40 -95 39 -316 -2 -483 -54 -220
-223 -436 -416 -530 -111 -55 -213 -74 -357 -69 -207 8 -348 67 -485 203 -109
108 -184 252 -194 370 -8 107 57 215 131 215 26 0 43 -12 97 -68 74 -78 172
-211 195 -265 14 -35 14 -38 -5 -57 -50 -50 -133 -4 -241 135 -41 52 -78 93
-84 91 -5 -1 -19 -19 -29 -40 -17 -34 -17 -45 -7 -89 39 -171 262 -327 409
-288 75 21 141 101 142 174 0 23 4 27 30 27 28 0 30 -2 30 -39 0 -51 31 -151
60 -190 25 -36 87 -71 125 -71 22 0 25 4 25 38 0 21 -12 76 -26 123 -33 109
-29 181 15 275 40 85 161 209 241 246 30 14 84 39 120 56 98 45 102 49 85 97
-8 22 -21 45 -30 51 -9 7 -87 13 -197 17 -255 8 -380 44 -430 125 -27 45 -29
109 -3 128 23 17 138 18 270 4z m-509 -124 c56 -50 128 -166 184 -294 77 -179
86 -241 35 -264 -20 -9 -31 -6 -68 16 -115 66 -337 380 -337 475 0 25 9 42 39
72 53 53 84 52 147 -5z m449 -283 c25 -3 44 -9 43 -12 -2 -4 -24 -26 -50 -50
l-48 -44 -14 35 c-8 19 -18 47 -22 63 -6 26 -5 28 20 21 14 -3 46 -9 71 -13z"/>
</g>
</svg>
