<?xml version="1.0" encoding="UTF-8" standalone="no"?>
<svg
   xmlns:dc="http://purl.org/dc/elements/1.1/"
   xmlns:cc="http://creativecommons.org/ns#"
   xmlns:rdf="http://www.w3.org/1999/02/22-rdf-syntax-ns#"
   xmlns:svg="http://www.w3.org/2000/svg"
   xmlns="http://www.w3.org/2000/svg"
   xmlns:sodipodi="http://sodipodi.sourceforge.net/DTD/sodipodi-0.dtd"
   xmlns:inkscape="http://www.inkscape.org/namespaces/inkscape"
   version="1.1"
   x="0px"
   y="0px"
   viewBox="0 0 100 100"
   xml:space="preserve"
   id="svg2"
   inkscape:version="0.91 r13725"
   sodipodi:docname="noun_505110_cc-colored.svg"
   width="100"
   height="100"><metadata
     id="metadata24"><rdf:RDF><cc:Work
         rdf:about=""><dc:format>image/svg+xml</dc:format><dc:type
           rdf:resource="http://purl.org/dc/dcmitype/StillImage" /><dc:title></dc:title></cc:Work></rdf:RDF></metadata><defs
     id="defs22" /><sodipodi:namedview
     pagecolor="#ffffff"
     bordercolor="#666666"
     borderopacity="1"
     objecttolerance="10"
     gridtolerance="10"
     guidetolerance="10"
     inkscape:pageopacity="0"
     inkscape:pageshadow="2"
     inkscape:window-width="1600"
     inkscape:window-height="837"
     id="namedview20"
     showgrid="false"
     inkscape:zoom="1.888"
     inkscape:cx="50"
     inkscape:cy="62.5"
     inkscape:window-x="-8"
     inkscape:window-y="-8"
     inkscape:window-maximized="1"
     inkscape:current-layer="svg2" /><circle
     style="fill:#ffdd23;fill-opacity:1"
     id="path4152"
     cx="50"
     cy="50"
     r="50" /><g
     id="g4"
     transform="translate(-3.0872583,10.209691)"
     style="fill:#404a5a;fill-opacity:1"><g
       id="g6"
       style="fill:#404a5a;fill-opacity:1"><path
         d="m 43.4,23.7 c -0.1,-0.4 -0.5,-0.6 -0.9,-0.5 l -25.9,7.5 c -0.4,0.1 -0.6,0.5 -0.5,0.9 0.1,0.3 0.4,0.5 0.7,0.5 0.1,0 0.1,0 0.2,0 l 25.9,-7.5 c 0.4,-0.1 0.6,-0.5 0.5,-0.9 z"
         id="path8"
         inkscape:connector-curvature="0"
         style="fill:#404a5a;fill-opacity:1" /><path
         d="m 52.4,19 26.7,3.4 c 0,0 0.1,0 0.1,0 0.4,0 0.7,-0.3 0.7,-0.7 0.1,-0.4 -0.2,-0.8 -0.6,-0.8 L 52.6,17.5 c -0.4,-0.1 -0.8,0.2 -0.8,0.6 -0.1,0.5 0.2,0.8 0.6,0.9 z"
         id="path10"
         inkscape:connector-curvature="0"
         style="fill:#404a5a;fill-opacity:1" /><path
         d="m 49.5,51.6 -0.7,0 c 0.6,-1.6 0.9,-3.3 0.9,-5 0,-8.2 -6.6,-14.8 -14.8,-14.8 -8.2,0 -14.8,6.6 -14.8,14.8 0,1.8 0.3,3.5 0.9,5 l -1,0 c -0.4,0 -0.8,0.3 -0.8,0.8 0,0.5 0.3,0.8 0.8,0.8 l 1.7,0 c 2.4,4.9 7.4,8.3 13.3,8.3 5.9,0 10.8,-3.4 13.3,-8.3 l 1.3,0 c 0.4,0 0.8,-0.3 0.8,-0.8 0,-0.5 -0.4,-0.8 -0.9,-0.8 z m -27.8,-5 c 0,-7.3 6,-13.3 13.3,-13.3 7.3,0 13.3,6 13.3,13.3 0,1.8 -0.4,3.5 -1,5 l -24.6,0 c -0.7,-1.6 -1,-3.3 -1,-5 z m 20.1,11.3 c 0.1,-0.3 0.1,-0.6 0.1,-0.9 0,-1.8 -1.5,-3.3 -3.3,-3.3 -1.8,0 -3.3,1.5 -3.3,3.3 0,1.1 0.6,2.1 1.4,2.7 -0.6,0.1 -1.3,0.2 -1.9,0.2 -5,0 -9.3,-2.7 -11.6,-6.8 l 23.1,0 c -0.9,2 -2.5,3.6 -4.5,4.8 z"
         id="path12"
         inkscape:connector-curvature="0"
         style="fill:#404a5a;fill-opacity:1" /><path
         d="m 89.4,51.6 -1.4,0 c 1.4,-2.6 2.1,-5.6 2.1,-8.8 0,-10.6 -8.6,-19.2 -19.2,-19.2 -10.6,0 -19.2,8.6 -19.2,19.2 0,3.2 0.8,6.2 2.1,8.8 l -1.3,0 c -0.4,0 -0.8,0.3 -0.8,0.8 0,0.5 0.3,0.8 0.8,0.8 l 2.1,0 c 3.4,5.4 9.4,8.9 16.2,8.9 6.8,0 12.8,-3.6 16.2,-8.9 l 2.3,0 c 0.4,0 0.8,-0.3 0.8,-0.8 0,-0.5 -0.3,-0.8 -0.7,-0.8 z M 53.2,42.8 c 0,-9.8 8,-17.7 17.7,-17.7 9.7,0 17.7,8 17.7,17.7 0,3.2 -0.9,6.2 -2.4,8.8 l -30.6,0 C 54.1,49 53.2,46 53.2,42.8 Z m 24.1,16.5 c 0.2,-0.4 0.4,-0.9 0.4,-1.5 0,-1.8 -1.5,-3.3 -3.3,-3.3 -1.8,0 -3.3,1.5 -3.3,3.3 0,1.1 0.5,2 1.3,2.6 -0.4,0 -0.9,0.1 -1.3,0.1 -5.9,0 -11.2,-2.9 -14.4,-7.4 l 28.8,0 c -2.2,2.8 -5,5 -8.2,6.2 z"
         id="path14"
         inkscape:connector-curvature="0"
         style="fill:#404a5a;fill-opacity:1" /></g></g></svg>