<?xml version="1.0" encoding="UTF-8" standalone="no"?>
<svg
   xmlns:dc="http://purl.org/dc/elements/1.1/"
   xmlns:cc="http://creativecommons.org/ns#"
   xmlns:rdf="http://www.w3.org/1999/02/22-rdf-syntax-ns#"
   xmlns:svg="http://www.w3.org/2000/svg"
   xmlns="http://www.w3.org/2000/svg"
   xmlns:sodipodi="http://sodipodi.sourceforge.net/DTD/sodipodi-0.dtd"
   xmlns:inkscape="http://www.inkscape.org/namespaces/inkscape"
   version="1.1"
   x="0px"
   y="0px"
   viewBox="0 0 100 100"
   xml:space="preserve"
   id="svg2"
   inkscape:version="0.91 r13725"
   sodipodi:docname="noun_505109_cc-colored.svg"
   width="100"
   height="100"><metadata
     id="metadata28"><rdf:RDF><cc:Work
         rdf:about=""><dc:format>image/svg+xml</dc:format><dc:type
           rdf:resource="http://purl.org/dc/dcmitype/StillImage" /><dc:title></dc:title></cc:Work></rdf:RDF></metadata><defs
     id="defs26" /><sodipodi:namedview
     pagecolor="#ffffff"
     bordercolor="#666666"
     borderopacity="1"
     objecttolerance="10"
     gridtolerance="10"
     guidetolerance="10"
     inkscape:pageopacity="0"
     inkscape:pageshadow="2"
     inkscape:window-width="1600"
     inkscape:window-height="837"
     id="namedview24"
     showgrid="false"
     inkscape:zoom="1.888"
     inkscape:cx="50"
     inkscape:cy="62.5"
     inkscape:window-x="-8"
     inkscape:window-y="-8"
     inkscape:window-maximized="1"
     inkscape:current-layer="svg2" /><circle
     style="fill:#ef6044;fill-opacity:1"
     id="path4156"
     cx="50"
     cy="50"
     r="50" /><g
     id="g4"
     transform="translate(0.9627417,10.562742)"
     style="fill:#424a5a;fill-opacity:1"><g
       id="g6"
       style="fill:#424a5a;fill-opacity:1"><path
         d="m 32.4,31.8 c -8.2,0 -14.8,6.6 -14.8,14.8 0,8.2 6.6,14.8 14.8,14.8 8.2,0 14.8,-6.6 14.8,-14.8 0,-8.2 -6.7,-14.8 -14.8,-14.8 z m 0,28 c -7.3,0 -13.3,-6 -13.3,-13.3 0,-7.3 6,-13.3 13.3,-13.3 7.3,0 13.3,6 13.3,13.3 0,7.3 -6,13.3 -13.3,13.3 z"
         id="path8"
         inkscape:connector-curvature="0"
         style="fill:#424a5a;fill-opacity:1" /><path
         d="m 84.4,57.1 c -0.9,-0.2 -1.9,-0.3 -2.9,-0.2 3.9,-3.6 6.1,-8.6 6.1,-14.1 0,-10.6 -8.6,-19.2 -19.2,-19.2 -10.6,0 -19.2,8.6 -19.2,19.2 0,9.5 6.8,17.4 16,18.9 -1.4,0.7 -2.2,1.2 -2.4,1.3 -0.4,0.2 -0.5,0.7 -0.3,1 0.1,0.2 0.4,0.4 0.6,0.4 0.1,0 0.3,0 0.4,-0.1 0.1,-0.1 12.7,-7.3 20.6,-5.7 0.4,0.1 0.8,-0.2 0.9,-0.6 0.1,-0.4 -0.2,-0.8 -0.6,-0.9 z m -16.8,3.4 c -9.5,-0.4 -17,-8.2 -17,-17.7 0,-9.8 8,-17.7 17.7,-17.7 9.8,0 17.7,8 17.7,17.7 0,5.6 -2.6,10.8 -7.1,14.2 0,0 0,0 0,0 -4,0.6 -8.1,2.1 -11.3,3.5 0,0 0,0 0,0 z"
         id="path10"
         inkscape:connector-curvature="0"
         style="fill:#424a5a;fill-opacity:1" /><path
         d="M 37.8,23.7 C 37.7,23.3 37.3,23.1 36.9,23.2 L 11,30.7 c -0.4,0.1 -0.6,0.5 -0.5,0.9 0.1,0.3 0.4,0.5 0.7,0.5 0.1,0 0.1,0 0.2,0 l 25.9,-7.5 c 0.4,-0.1 0.6,-0.5 0.5,-0.9 z"
         id="path12"
         inkscape:connector-curvature="0"
         style="fill:#424a5a;fill-opacity:1" /><path
         d="m 53.2,16 26,6.8 c 0.1,0 0.1,0 0.2,0 0.3,0 0.6,-0.2 0.7,-0.6 0.1,-0.4 -0.1,-0.8 -0.5,-0.9 l -26,-6.8 c -0.4,-0.1 -0.8,0.1 -0.9,0.5 -0.2,0.4 0.1,0.9 0.5,1 z"
         id="path14"
         inkscape:connector-curvature="0"
         style="fill:#424a5a;fill-opacity:1" /><circle
         cx="38.700001"
         cy="49.5"
         r="3.3"
         id="circle16"
         style="fill:#424a5a;fill-opacity:1" /><circle
         cx="57.299999"
         cy="49.5"
         r="3.3"
         id="circle18"
         style="fill:#424a5a;fill-opacity:1" /></g></g></svg>