<?xml version="1.0" encoding="UTF-8" standalone="no"?>
<svg
   xmlns:dc="http://purl.org/dc/elements/1.1/"
   xmlns:cc="http://creativecommons.org/ns#"
   xmlns:rdf="http://www.w3.org/1999/02/22-rdf-syntax-ns#"
   xmlns:svg="http://www.w3.org/2000/svg"
   xmlns="http://www.w3.org/2000/svg"
   xmlns:sodipodi="http://sodipodi.sourceforge.net/DTD/sodipodi-0.dtd"
   xmlns:inkscape="http://www.inkscape.org/namespaces/inkscape"
   version="1.1"
   x="0px"
   y="0px"
   viewBox="0 0 100 100"
   xml:space="preserve"
   id="svg2"
   inkscape:version="0.91 r13725"
   sodipodi:docname="noun_505107_cc-colored.svg"
   width="100"
   height="100"><metadata
     id="metadata28"><rdf:RDF><cc:Work
         rdf:about=""><dc:format>image/svg+xml</dc:format><dc:type
           rdf:resource="http://purl.org/dc/dcmitype/StillImage" /><dc:title></dc:title></cc:Work></rdf:RDF></metadata><defs
     id="defs26" /><sodipodi:namedview
     pagecolor="#ffffff"
     bordercolor="#666666"
     borderopacity="1"
     objecttolerance="10"
     gridtolerance="10"
     guidetolerance="10"
     inkscape:pageopacity="0"
     inkscape:pageshadow="2"
     inkscape:window-width="903"
     inkscape:window-height="828"
     id="namedview24"
     showgrid="false"
     showguides="false"
     inkscape:guide-bbox="true"
     inkscape:snap-page="true"
     inkscape:zoom="1.888"
     inkscape:cx="37.817797"
     inkscape:cy="62.5"
     inkscape:window-x="-7"
     inkscape:window-y="0"
     inkscape:window-maximized="0"
     inkscape:current-layer="svg2"><sodipodi:guide
       position="67.266949,139.83051"
       orientation="0,1"
       id="guide5258" /><sodipodi:guide
       position="100.63559,80.508475"
       orientation="1,0"
       id="guide5260" /></sodipodi:namedview><circle
     style="fill:#579525;fill-opacity:1;stroke:none;stroke-opacity:1"
     id="path5262"
     cx="50"
     cy="50"
     r="50" /><g
     id="g4"
     transform="translate(-1.05,9.6)"
     style="fill:#424a5a;fill-opacity:1"><g
       id="g6"
       style="fill:#424a5a;fill-opacity:1"><path
         d="m 30.6,31.9 c -8.1,0 -14.8,6.6 -14.8,14.8 0,4.8 2.3,9.1 6,11.9 -2.1,-0.1 -3.6,0 -3.8,0 -0.4,0 -0.7,0.4 -0.7,0.8 0,0.4 0.4,0.7 0.8,0.7 0.1,0 12.8,-0.5 18.4,3.9 0.1,0.1 0.3,0.2 0.5,0.2 0.2,0 0.4,-0.1 0.6,-0.3 0.3,-0.3 0.2,-0.8 -0.1,-1.1 -0.9,-0.7 -2,-1.3 -3.1,-1.8 6.4,-1.7 11,-7.4 11,-14.3 0,-8.2 -6.6,-14.8 -14.8,-14.8 z M 32,59.8 c -0.1,0 -0.2,0.1 -0.3,0.1 -2.2,-0.6 -4.5,-1 -6.6,-1.2 C 25,58.6 25,58.6 24.9,58.5 20.3,56.3 17.5,51.7 17.5,46.6 c 0,-7.3 5.9,-13.3 13.3,-13.3 7.4,0 13.3,5.9 13.3,13.3 -0.2,6.9 -5.3,12.6 -12.1,13.2 z"
         id="path8"
         inkscape:connector-curvature="0"
         style="fill:#424a5a;fill-opacity:1" /><path
         d="m 85.9,42.8 c 0,-10.6 -8.6,-19.3 -19.3,-19.3 -10.7,0 -19.3,8.6 -19.3,19.3 0,10.5 8.4,19 18.9,19.2 -0.5,0.3 -0.9,0.5 -0.9,0.5 -0.4,0.2 -0.5,0.7 -0.3,1 0.1,0.2 0.4,0.4 0.6,0.4 0.1,0 0.3,0 0.4,-0.1 0.1,-0.1 11.1,-6.4 18.1,-5 0.4,0.1 0.8,-0.2 0.9,-0.6 0.1,-0.4 -0.2,-0.8 -0.6,-0.9 -1.6,-0.3 -3.4,-0.3 -5.2,0 4.2,-3.6 6.7,-8.8 6.7,-14.5 z m -9.8,15 c -0.1,0.1 -0.2,0.2 -0.2,0.3 -2.3,0.6 -4.5,1.5 -6.3,2.3 -0.1,0 -0.2,-0.1 -0.4,0 -0.8,0.1 -1.7,0.2 -2.6,0.2 -9.8,0 -17.8,-8 -17.8,-17.8 0,-9.8 8,-17.8 17.8,-17.8 9.8,0 17.8,8 17.8,17.8 0,6.1 -3.1,11.7 -8.3,15 z"
         id="path10"
         inkscape:connector-curvature="0"
         style="fill:#424a5a;fill-opacity:1" /><circle
         cx="25.6"
         cy="39.5"
         r="3.3"
         id="circle12"
         style="fill:#424a5a;fill-opacity:1" /><circle
         cx="59.200001"
         cy="32.700001"
         r="3.3"
         id="circle14"
         style="fill:#424a5a;fill-opacity:1" /><path
         d="M 36.5,25.9 C 36.4,25.5 36.1,25.2 35.7,25.3 L 8.9,28.6 c -0.4,0.1 -0.7,0.4 -0.6,0.8 0,0.4 0.4,0.7 0.7,0.7 0,0 0.1,0 0.1,0 l 26.7,-3.4 c 0.4,0 0.7,-0.4 0.7,-0.8 z"
         id="path16"
         inkscape:connector-curvature="0"
         style="fill:#424a5a;fill-opacity:1" /><path
         d="M 93.2,19.2 56.7,16.6 c -0.4,0 -0.8,0.3 -0.8,0.7 0,0.4 0.3,0.8 0.7,0.8 L 93,20.7 c 0,0 0,0 0.1,0 0.4,0 0.7,-0.3 0.7,-0.7 0.1,-0.4 -0.2,-0.8 -0.6,-0.8 z"
         id="path18"
         inkscape:connector-curvature="0"
         style="fill:#424a5a;fill-opacity:1" /></g></g></svg>