<?xml version="1.0" encoding="UTF-8" standalone="no"?>
<svg
   xmlns:dc="http://purl.org/dc/elements/1.1/"
   xmlns:cc="http://creativecommons.org/ns#"
   xmlns:rdf="http://www.w3.org/1999/02/22-rdf-syntax-ns#"
   xmlns:svg="http://www.w3.org/2000/svg"
   xmlns="http://www.w3.org/2000/svg"
   xmlns:sodipodi="http://sodipodi.sourceforge.net/DTD/sodipodi-0.dtd"
   xmlns:inkscape="http://www.inkscape.org/namespaces/inkscape"
   version="1.1"
   x="0px"
   y="0px"
   viewBox="0 0 100 100"
   xml:space="preserve"
   id="svg2"
   inkscape:version="0.91 r13725"
   sodipodi:docname="noun_505111_cc-colored.svg"
   width="100"
   height="100"><metadata
     id="metadata28"><rdf:RDF><cc:Work
         rdf:about=""><dc:format>image/svg+xml</dc:format><dc:type
           rdf:resource="http://purl.org/dc/dcmitype/StillImage" /><dc:title></dc:title></cc:Work></rdf:RDF></metadata><defs
     id="defs26" /><sodipodi:namedview
     pagecolor="#ffffff"
     bordercolor="#666666"
     borderopacity="1"
     objecttolerance="10"
     gridtolerance="10"
     guidetolerance="10"
     inkscape:pageopacity="0"
     inkscape:pageshadow="2"
     inkscape:window-width="1600"
     inkscape:window-height="837"
     id="namedview24"
     showgrid="false"
     inkscape:zoom="1.888"
     inkscape:cx="50"
     inkscape:cy="62.764831"
     inkscape:window-x="-8"
     inkscape:window-y="-8"
     inkscape:window-maximized="1"
     inkscape:current-layer="svg2" /><circle
     style="fill:#ff7c07;fill-opacity:1;stroke:none;stroke-opacity:1"
     id="path4156"
     cx="50"
     cy="50"
     r="50" /><g
     id="g4"
     transform="translate(0.05,10.859691)"
     style="fill:#404a5a;fill-opacity:1"><g
       id="g6"
       style="fill:#404a5a;fill-opacity:1"><path
         d="m 84,34.5 c 0,0 0,0 0,0 0.2,-0.4 0.1,-0.9 -0.3,-1.1 -13.8,-6.5 -30,-7.9 -30.1,-7.9 -0.4,0 -0.8,0.3 -0.8,0.7 0,0.4 0.3,0.8 0.7,0.8 0.1,0 2.4,0.2 5.9,0.8 l 19,5 c 1.6,0.6 3.2,1.3 4.7,2 0.1,0 0.2,0.1 0.3,0.1 -0.1,0.2 -0.2,0.5 -0.1,0.7 1,2.3 1.5,4.7 1.5,7.2 0,9.8 -8,17.7 -17.7,17.7 -9.7,0 -17.7,-8 -17.7,-17.7 0,-5.1 2.2,-9.9 5.9,-13.3 0.3,-0.3 0.3,-0.7 0.1,-1.1 -0.3,-0.3 -0.8,-0.3 -1.1,-0.1 -4.1,3.6 -6.5,8.9 -6.5,14.4 0,10.7 8.6,19.3 19.2,19.3 10.6,0 19.2,-8.6 19.2,-19.2 0,-2.7 -0.6,-5.3 -1.7,-7.8 0,-0.3 -0.3,-0.4 -0.5,-0.5 z"
         id="path8"
         inkscape:connector-curvature="0"
         style="fill:#404a5a;fill-opacity:1" /><path
         d="M 37.3,22 C 37.2,21.6 36.8,21.4 36.4,21.5 L 12.2,28 c -0.4,0.1 -0.6,0.5 -0.5,0.9 0.1,0.3 0.4,0.6 0.7,0.6 0.1,0 0.1,0 0.2,0 L 36.8,23 c 0.4,-0.2 0.6,-0.6 0.5,-1 z"
         id="path10"
         inkscape:connector-curvature="0"
         style="fill:#404a5a;fill-opacity:1" /><path
         d="M 87.7,21.5 61.3,16.3 c -0.4,-0.1 -0.8,0.2 -0.9,0.6 -0.1,0.4 0.2,0.8 0.6,0.9 L 87.4,23 c 0,0 0.1,0 0.1,0 0.4,0 0.7,-0.2 0.7,-0.6 0.1,-0.5 -0.1,-0.9 -0.5,-0.9 z"
         id="path12"
         inkscape:connector-curvature="0"
         style="fill:#404a5a;fill-opacity:1" /><path
         d="m 40.2,35 c 0.7,0 1.3,-0.1 2,0 0.4,0 0.8,-0.3 0.8,-0.7 0,-0.4 -0.3,-0.8 -0.7,-0.8 -6.7,-0.1 -14.5,2.5 -19.5,4.5 -1.7,0.6 -3.3,1.3 -4.7,2 -0.2,0.1 -0.3,0.2 -0.3,0.3 0,0 0,0 0,0.1 0,0.1 -0.1,0.1 -0.1,0.2 -0.9,1.9 -1.3,4 -1.3,6.1 0,8.2 6.6,14.8 14.8,14.8 C 39.4,61.5 46,54.9 46,46.7 45.8,42 43.8,37.8 40.2,35 Z M 31,59.8 c -7.3,0 -13.3,-6 -13.3,-13.3 0,-1.8 0.4,-3.6 1.1,-5.4 0.6,-0.3 2.3,-1 4.5,-1.9 5.6,-2 12.1,-3.4 14.7,-3.9 3.9,2.5 6.2,6.6 6.2,11.3 0.1,7.3 -5.8,13.2 -13.2,13.2 z"
         id="path14"
         inkscape:connector-curvature="0"
         style="fill:#404a5a;fill-opacity:1" /><circle
         cx="30.200001"
         cy="47.599998"
         r="3.3"
         id="circle16"
         style="fill:#404a5a;fill-opacity:1" /><circle
         cx="65.800003"
         cy="43.700001"
         r="3.3"
         id="circle18"
         style="fill:#404a5a;fill-opacity:1" /></g></g></svg>