<?xml version="1.0" encoding="UTF-8" standalone="no"?>
<!-- Created with Inkscape (http://www.inkscape.org/) -->

<svg
   xmlns:dc="http://purl.org/dc/elements/1.1/"
   xmlns:cc="http://creativecommons.org/ns#"
   xmlns:rdf="http://www.w3.org/1999/02/22-rdf-syntax-ns#"
   xmlns:svg="http://www.w3.org/2000/svg"
   xmlns="http://www.w3.org/2000/svg"
   xmlns:sodipodi="http://sodipodi.sourceforge.net/DTD/sodipodi-0.dtd"
   xmlns:inkscape="http://www.inkscape.org/namespaces/inkscape"
   width="210mm"
   height="210mm"
   viewBox="0 0 744.09449 744.09448"
   id="svg4160"
   version="1.1"
   inkscape:version="0.91 r13725"
   sodipodi:docname="regex-icon.svg">
  <defs
     id="defs4162" />
  <sodipodi:namedview
     id="base"
     pagecolor="#ffffff"
     bordercolor="#666666"
     borderopacity="1.0"
     inkscape:pageopacity="0.0"
     inkscape:pageshadow="2"
     inkscape:zoom="0.35"
     inkscape:cx="-46.428571"
     inkscape:cy="520"
     inkscape:document-units="px"
     inkscape:current-layer="layer1"
     showgrid="false"
     inkscape:window-width="1600"
     inkscape:window-height="837"
     inkscape:window-x="-8"
     inkscape:window-y="-8"
     inkscape:window-maximized="1" />
  <metadata
     id="metadata4165">
    <rdf:RDF>
      <cc:Work
         rdf:about="">
        <dc:format>image/svg+xml</dc:format>
        <dc:type
           rdf:resource="http://purl.org/dc/dcmitype/StillImage" />
        <dc:title></dc:title>
      </cc:Work>
    </rdf:RDF>
  </metadata>
  <g
     inkscape:label="Layer 1"
     inkscape:groupmode="layer"
     id="layer1"
     transform="translate(0,-308.26772)">
    <g
       id="g4"
       style="fill:#3b3e88;fill-opacity:1;stroke:none;stroke-opacity:1"
       transform="matrix(31.310559,0,0,31.310559,12771.267,-8657.8633)">
      <g
         id="g6"
         style="fill:#3b3e88;fill-opacity:1;stroke:none;stroke-opacity:1">
        <path
           d="m -394.9,291.8 c -0.3,-0.1 -0.5,0.1 -0.6,0.4 l -2,8 c -0.1,0.3 0.1,0.5 0.4,0.6 0,0 0.1,0 0.1,0 0.2,0 0.4,-0.2 0.5,-0.4 l 2,-8 c 0.1,-0.3 -0.1,-0.5 -0.4,-0.6 z m -3.8,1.1 c -0.2,-0.2 -0.5,-0.1 -0.7,0.1 l -2,3 c -0.1,0.2 -0.1,0.4 0,0.6 l 2,3 c 0.1,0.1 0.3,0.2 0.4,0.2 0.1,0 0.2,0 0.3,-0.1 0.2,-0.2 0.3,-0.5 0.1,-0.7 l -1.8,-2.7 1.8,-2.7 c 0.2,-0.3 0.1,-0.6 -0.1,-0.7 z m 11.7,-6.1 -18,0 c -1.4,0 -2.5,1.1 -2.5,2.5 l 0,14 c 0,1.4 1.1,2.5 2.5,2.5 l 7.5,0 0,1 -3.5,0 c -1.4,0 -2.5,1.1 -2.5,2.5 0,0.3 0.2,0.5 0.5,0.5 l 14,0 c 0.3,0 0.5,-0.2 0.5,-0.5 0,-0.1 0,-0.1 0,-0.2 -0.1,-1.3 -1.2,-2.3 -2.5,-2.3 l -3.5,0 0,-1 7.5,0 c 1.4,0 2.5,-1.1 2.5,-2.5 l 0,-14 c 0,-1.4 -1.1,-2.5 -2.5,-2.5 z m 1.5,15 -21,0 0,-12.5 c 0,-0.8 0.7,-1.5 1.5,-1.5 l 18,0 c 0.8,0 1.5,0.7 1.5,1.5 l 0,12.5 z m -14.9,-8.4 c 0,-0.3 -0.2,-0.5 -0.5,-0.5 -0.7,0 -1.1,-0.1 -1.2,-0.3 -0.2,-0.2 -0.3,-0.6 -0.3,-1.2 0,-0.3 -0.2,-0.5 -0.5,-0.5 -0.3,0 -0.5,0.2 -0.5,0.5 0,0.7 -0.1,1.1 -0.3,1.2 -0.2,0.2 -0.6,0.3 -1.2,0.3 -0.3,0 -0.5,0.2 -0.5,0.5 0,0.3 0.2,0.5 0.5,0.5 0.7,0 1.1,0.1 1.2,0.3 0.2,0.2 0.3,0.6 0.3,1.2 0,0.3 0.2,0.5 0.5,0.5 0.3,0 0.5,-0.2 0.5,-0.5 0,-0.7 0.1,-1.1 0.3,-1.2 0.2,-0.2 0.6,-0.3 1.2,-0.3 0.3,0 0.5,-0.2 0.5,-0.5 z m 7.8,-0.4 c -0.2,-0.2 -0.5,-0.3 -0.7,-0.1 -0.2,0.2 -0.3,0.5 -0.1,0.7 l 1.8,2.7 -1.8,2.7 c -0.2,0.2 -0.1,0.5 0.1,0.7 0.1,0.1 0.2,0.1 0.3,0.1 0.2,0 0.3,-0.1 0.4,-0.2 l 2,-3 c 0.1,-0.2 0.1,-0.4 0,-0.6 l -2,-3 z m 5.7,-2.2 c -0.7,0 -1.1,-0.1 -1.2,-0.3 -0.2,-0.2 -0.3,-0.6 -0.3,-1.2 0,-0.3 -0.2,-0.5 -0.5,-0.5 -0.3,0 -0.5,0.2 -0.5,0.5 0,0.7 -0.1,1.1 -0.3,1.2 -0.2,0.2 -0.6,0.3 -1.2,0.3 -0.3,0 -0.5,0.2 -0.5,0.5 0,0.3 0.2,0.5 0.5,0.5 0.7,0 1.1,0.1 1.2,0.3 0.2,0.2 0.3,0.6 0.3,1.2 0,0.3 0.2,0.5 0.5,0.5 0.3,0 0.5,-0.2 0.5,-0.5 0,-0.7 0.1,-1.1 0.3,-1.2 0.2,-0.2 0.6,-0.3 1.2,-0.3 0.3,0 0.5,-0.2 0.5,-0.5 0,-0.3 -0.2,-0.5 -0.5,-0.5 z"
           id="path8"
           style="fill:#3b3e88;fill-opacity:1;stroke:none;stroke-opacity:1"
           inkscape:connector-curvature="0" />
      </g>
    </g>
  </g>
</svg>
